<svg width="159" height="165" viewBox="0 0 159 165" fill="none" xmlns="http://www.w3.org/2000/svg">
<g filter="url(#filter0_d)">
<circle cx="79.5" cy="75.5" r="75.5" fill="white"/>
</g>
<path d="M71.3149 72.6616H73.8442C75.1203 72.6502 76.1286 72.3198 76.8691 71.6704C77.6211 71.021 77.9971 70.0811 77.9971 68.8506C77.9971 67.6657 77.6838 66.7485 77.0571 66.0991C76.4419 65.4383 75.4963 65.1079 74.2202 65.1079C73.1037 65.1079 72.1865 65.4326 71.4688 66.082C70.751 66.7201 70.3921 67.5575 70.3921 68.5942H66.2393C66.2393 67.3182 66.5754 66.1561 67.2476 65.1079C67.9312 64.0597 68.8768 63.2451 70.0845 62.6641C71.3035 62.0716 72.665 61.7754 74.1689 61.7754C76.6527 61.7754 78.6009 62.402 80.0137 63.6553C81.4378 64.8971 82.1499 66.6289 82.1499 68.8506C82.1499 69.9671 81.791 71.021 81.0732 72.0122C80.3669 72.992 79.4497 73.7326 78.3218 74.2339C79.689 74.701 80.7257 75.4359 81.4321 76.4385C82.1499 77.4411 82.5088 78.6374 82.5088 80.0273C82.5088 82.2604 81.7397 84.0378 80.2017 85.3594C78.675 86.681 76.6641 87.3418 74.1689 87.3418C71.7764 87.3418 69.8167 86.7038 68.29 85.4277C66.7633 84.1517 66 82.4541 66 80.335H70.1528C70.1528 81.4287 70.5174 82.3174 71.2466 83.001C71.9871 83.6846 72.9784 84.0264 74.2202 84.0264C75.5076 84.0264 76.5216 83.6846 77.2622 83.001C78.0028 82.3174 78.373 81.3262 78.373 80.0273C78.373 78.7171 77.9857 77.7088 77.2109 77.0024C76.4362 76.2961 75.2855 75.9429 73.7588 75.9429H71.3149V72.6616Z" fill="#7A7E86"/>
<path d="M85.5093 75.5156C85.5093 74.6562 85.786 73.9531 86.3394 73.4062C86.8927 72.8529 87.6187 72.5762 88.5171 72.5762C89.4285 72.5762 90.1577 72.8529 90.7046 73.4062C91.258 73.9531 91.5347 74.6725 91.5347 75.5645V76.2676C91.5347 77.1204 91.258 77.8203 90.7046 78.3672C90.1577 78.9141 89.4351 79.1875 88.5366 79.1875C87.6577 79.1875 86.9318 78.9206 86.3589 78.3867C85.7925 77.8464 85.5093 77.1204 85.5093 76.209V75.5156ZM87.1694 76.2676C87.1694 76.7168 87.2931 77.0814 87.5405 77.3613C87.7944 77.6348 88.1265 77.7715 88.5366 77.7715C88.9403 77.7715 89.2658 77.6348 89.5132 77.3613C89.7606 77.0814 89.8843 76.7038 89.8843 76.2285V75.5156C89.8843 75.0664 89.7573 74.7018 89.5034 74.4219C89.256 74.1419 88.9272 74.002 88.5171 74.002C88.1069 74.002 87.7782 74.1452 87.5308 74.4316C87.2899 74.7116 87.1694 75.0827 87.1694 75.5449V76.2676ZM92.3452 83.5137C92.3452 82.6413 92.6284 81.9349 93.1948 81.3945C93.7612 80.8542 94.4839 80.584 95.3628 80.584C96.2482 80.584 96.9709 80.8542 97.5308 81.3945C98.0972 81.9349 98.3804 82.6641 98.3804 83.582V84.2754C98.3804 85.1217 98.1069 85.8216 97.5601 86.375C97.0197 86.9219 96.2938 87.1953 95.3823 87.1953C94.4709 87.1953 93.7352 86.9251 93.1753 86.3848C92.6219 85.8379 92.3452 85.1185 92.3452 84.2266V83.5137ZM94.0054 84.2754C94.0054 84.7181 94.1323 85.0827 94.3862 85.3691C94.6466 85.6491 94.9787 85.7891 95.3823 85.7891C95.799 85.7891 96.1245 85.6556 96.3589 85.3887C96.5998 85.1152 96.7202 84.7344 96.7202 84.2461V83.5137C96.7202 83.0579 96.5933 82.6934 96.3394 82.4199C96.0854 82.1465 95.7599 82.0098 95.3628 82.0098C94.9591 82.0098 94.6304 82.1465 94.3765 82.4199C94.1291 82.6934 94.0054 83.071 94.0054 83.5527V84.2754ZM89.0249 85.9355L87.8042 85.2324L94.7476 74.1191L95.9683 74.8223L89.0249 85.9355Z" fill="#7A7E86"/>
<path d="M42 75C42 92.5385 56.6154 113 80 113C103.385 113 118 92.5385 118 75C118 57.4615 103.385 37 80 37C65.3846 37 53.6923 45.7692 47.8462 54.5385M47.8462 54.5385H62.4615M47.8462 54.5385V39.9231" stroke="#7A7E86" stroke-width="4" stroke-linecap="round" stroke-linejoin="round"/>
<defs>
<filter id="filter0_d" x="0" y="0" width="159" height="165" filterUnits="userSpaceOnUse" color-interpolation-filters="sRGB">
<feFlood flood-opacity="0" result="BackgroundImageFix"/>
<feColorMatrix in="SourceAlpha" type="matrix" values="0 0 0 0 0 0 0 0 0 0 0 0 0 0 0 0 0 0 127 0"/>
<feOffset dy="10"/>
<feGaussianBlur stdDeviation="2"/>
<feColorMatrix type="matrix" values="0 0 0 0 0 0 0 0 0 0 0 0 0 0 0 0 0 0 0.05 0"/>
<feBlend mode="normal" in2="BackgroundImageFix" result="effect1_dropShadow"/>
<feBlend mode="normal" in="SourceGraphic" in2="effect1_dropShadow" result="shape"/>
</filter>
</defs>
</svg>
