<svg width="685" height="351" viewBox="0 0 685 351" fill="none" xmlns="http://www.w3.org/2000/svg">
<path d="M0 2H667.003V164L0 2Z" fill="#DADADA"/>
<g filter="url(#filter0_d)">
<path d="M667 164L0 2L429.5 338.5C451 157.5 599.333 157.667 667 164Z" fill="url(#paint0_linear)"/>
<path d="M429.109 337.559L2.12678 3.03109L660.489 162.933C626.473 160.221 576.071 160.058 530.732 180.544C482.49 202.342 440.049 247.484 429.109 337.559Z" stroke="#F76060"/>
</g>
<path d="M289.363 130.871C287.556 133.812 285.176 135.63 282.224 136.325C279.285 137.027 276.151 136.515 272.823 134.787C269.183 132.897 266.95 130.186 266.126 126.656C265.322 123.119 266.03 119.211 268.25 114.934L269.151 113.199C270.569 110.468 272.299 108.313 274.34 106.732C276.382 105.152 278.581 104.271 280.936 104.091C283.31 103.904 285.681 104.425 288.047 105.653C291.323 107.354 293.507 109.602 294.597 112.396C295.688 115.191 295.566 118.255 294.232 121.59L288.381 118.552C289.19 116.645 289.365 115.052 288.906 113.774C288.467 112.49 287.35 111.382 285.556 110.451C283.606 109.438 281.779 109.381 280.075 110.279C278.391 111.17 276.773 113.079 275.222 116.003L274.108 118.148C272.515 121.217 271.812 123.699 272 125.595C272.2 127.498 273.301 128.969 275.303 130.009C277.11 130.947 278.669 131.236 279.978 130.876C281.307 130.51 282.485 129.496 283.513 127.834L289.363 130.871ZM300.152 148.479C300.155 147.837 300.294 147.109 300.568 146.294C298.413 147.107 296.244 146.946 294.06 145.812C291.993 144.739 290.587 143.25 289.843 141.345C289.112 139.447 289.219 137.588 290.164 135.768C291.324 133.532 293.041 132.244 295.313 131.905C297.598 131.573 300.311 132.214 303.45 133.828L306.044 135.174L306.672 133.965C307.178 132.99 307.329 132.078 307.126 131.23C306.936 130.388 306.301 129.688 305.222 129.127C304.273 128.635 303.407 128.474 302.625 128.646C301.856 128.824 301.265 129.31 300.854 130.103L295.218 127.177C295.852 125.955 296.817 125.019 298.111 124.371C299.405 123.722 300.892 123.463 302.574 123.593C304.263 123.711 305.965 124.215 307.681 125.106C310.281 126.456 312.001 128.182 312.841 130.285C313.7 132.382 313.515 134.613 312.287 136.979L307.538 146.125C306.512 148.134 306.005 149.794 306.018 151.104L305.846 151.436L300.152 148.479ZM297.526 142.14C298.358 142.572 299.219 142.788 300.11 142.789C301.008 142.776 301.788 142.546 302.45 142.097L304.333 138.47L302.227 137.376C299.406 135.912 297.398 136.107 296.204 137.963L296.012 138.284C295.647 138.986 295.594 139.693 295.852 140.405C296.11 141.116 296.668 141.695 297.526 142.14ZM323.791 153.35C324.149 152.661 324.085 151.942 323.598 151.195C323.131 150.441 322.225 149.516 320.879 148.421C316.407 144.763 315.005 141.328 316.672 138.117C317.644 136.245 319.228 135.086 321.423 134.641C323.637 134.19 325.999 134.616 328.509 135.919C331.187 137.309 332.998 139.05 333.942 141.141C334.9 143.239 334.855 145.296 333.809 147.311L328.173 144.385C328.592 143.579 328.676 142.781 328.426 141.991C328.183 141.188 327.509 140.5 326.403 139.926C325.454 139.433 324.608 139.266 323.866 139.425C323.123 139.584 322.579 139.995 322.235 140.658C321.911 141.282 321.941 141.941 322.323 142.635C322.725 143.323 323.554 144.174 324.81 145.189C326.072 146.191 327.093 147.117 327.873 147.968C330.283 150.605 330.79 153.27 329.393 155.961C328.394 157.885 326.758 159.016 324.486 159.355C322.221 159.681 319.782 159.166 317.169 157.809C315.401 156.891 313.989 155.763 312.935 154.423C311.901 153.077 311.277 151.656 311.064 150.159C310.858 148.649 311.085 147.257 311.747 145.983L317.09 148.757C316.622 149.785 316.595 150.744 317.007 151.635C317.419 152.526 318.204 153.271 319.361 153.872C320.44 154.432 321.357 154.653 322.113 154.533C322.888 154.407 323.447 154.013 323.791 153.35ZM345.15 147.975C347.577 146.957 349.921 147.035 352.183 148.21C356.759 150.585 357.7 154.449 355.004 159.8L347.988 173.314L342.352 170.388L349.287 157.03C349.915 155.821 350.117 154.795 349.894 153.953C349.678 153.098 348.965 152.357 347.756 151.729C346.105 150.872 344.578 150.888 343.176 151.778L335.39 166.774L329.754 163.848L345.305 133.894L350.941 136.82L345.15 147.975ZM352.61 175.714L367.351 147.32L377.296 152.483C380.742 154.272 383.01 156.292 384.103 158.542C385.203 160.78 385.091 163.173 383.768 165.721C383.046 167.112 382.05 168.155 380.782 168.85C379.52 169.532 378.124 169.789 376.593 169.622C377.86 170.742 378.623 172.07 378.882 173.607C379.153 175.151 378.873 176.722 378.043 178.322C376.626 181.052 374.682 182.667 372.211 183.166C369.74 183.666 366.885 183.092 363.647 181.444L352.61 175.714ZM364.879 166.387L360.9 174.051L365.912 176.653C367.29 177.369 368.531 177.6 369.636 177.349C370.76 177.09 371.623 176.383 372.223 175.226C373.573 172.626 372.913 170.607 370.242 169.171L364.879 166.387ZM367.025 162.253L371.355 164.501C374.333 165.981 376.419 165.57 377.614 163.269C378.282 161.982 378.384 160.863 377.92 159.913C377.476 158.956 376.448 158.059 374.836 157.222L370.741 155.096L367.025 162.253ZM389.974 195.112C389.977 194.47 390.116 193.741 390.391 192.927C388.236 193.739 386.066 193.578 383.882 192.444C381.815 191.371 380.41 189.882 379.665 187.977C378.934 186.079 379.041 184.22 379.986 182.4C381.147 180.164 382.863 178.876 385.136 178.538C387.421 178.205 390.133 178.846 393.273 180.46L395.867 181.806L396.494 180.597C397.001 179.622 397.152 178.711 396.949 177.862C396.758 177.021 396.124 176.32 395.045 175.76C394.096 175.267 393.23 175.106 392.448 175.278C391.678 175.456 391.088 175.942 390.676 176.735L385.04 173.809C385.675 172.587 386.639 171.652 387.933 171.003C389.227 170.354 390.715 170.095 392.397 170.226C394.085 170.343 395.788 170.847 397.504 171.738C400.104 173.088 401.824 174.815 402.663 176.917C403.522 179.014 403.338 181.245 402.109 183.611L397.361 192.757C396.335 194.766 395.828 196.426 395.841 197.736L395.668 198.068L389.974 195.112ZM387.348 188.772C388.18 189.204 389.042 189.42 389.933 189.421C390.831 189.408 391.611 189.178 392.273 188.729L394.156 185.102L392.05 184.009C389.228 182.544 387.221 182.739 386.026 184.595L385.835 184.916C385.47 185.619 385.417 186.325 385.675 187.037C385.932 187.748 386.49 188.327 387.348 188.772ZM410.091 200.282C411.131 200.822 412.125 200.975 413.072 200.741C414.019 200.506 414.752 199.921 415.27 198.985L420.555 201.729C419.8 203.152 418.728 204.263 417.34 205.061C415.959 205.846 414.427 206.222 412.743 206.19C411.08 206.151 409.442 205.714 407.83 204.877C404.814 203.311 402.931 201.12 402.181 198.305C401.437 195.476 401.943 192.372 403.698 188.992L403.89 188.621C405.578 185.371 407.789 183.226 410.524 182.187C413.258 181.147 416.134 181.41 419.15 182.976C421.789 184.346 423.51 186.197 424.314 188.529C425.137 190.854 424.913 193.271 423.643 195.781L418.358 193.037C418.899 191.932 419.02 190.872 418.721 189.859C418.429 188.832 417.75 188.042 416.684 187.489C415.371 186.807 414.126 186.772 412.951 187.383C411.795 187.988 410.66 189.363 409.547 191.508L409.243 192.093C408.116 194.264 407.637 195.996 407.808 197.29C407.978 198.583 408.739 199.58 410.091 200.282ZM432.044 206.208L428.963 207.183L425.622 213.619L419.986 210.693L435.537 180.739L441.173 183.665L432.557 200.261L434.378 199.423L443.071 195.89L449.838 199.403L437.647 204.24L439.546 220.848L433.072 217.486L432.044 206.208Z" fill="white"/>
<g filter="url(#filter1_d)">
<path d="M182.982 83.199L187.988 85.7976C190.371 87.035 192.446 87.3559 194.214 86.7604C195.981 86.1649 197.376 84.8812 198.4 82.9094C199.39 81.0026 199.586 79.2203 198.989 77.5623C198.413 75.9156 197.129 74.5748 195.135 73.5399C193.337 72.6062 191.572 72.3228 189.841 72.6895C188.122 73.0347 186.851 73.9981 186.03 75.5799L176.637 70.7033C177.92 68.2332 179.728 66.3661 182.062 65.1022C184.429 63.8279 187.091 63.2569 190.048 63.3892C193.027 63.5328 195.958 64.3527 198.839 65.8488C203.845 68.4474 207.142 71.686 208.732 75.5648C210.333 79.422 210.043 83.4523 207.86 87.6559C206.735 89.8227 205.04 91.4731 202.773 92.607C200.506 93.7409 198.047 94.2386 195.396 94.0999C197.566 96.437 198.806 98.8964 199.116 101.478C199.448 104.071 198.939 106.668 197.589 109.268C195.407 113.471 192.119 116.042 187.726 116.98C183.355 117.929 178.645 117.093 173.596 114.472C168.873 112.02 165.652 108.766 163.934 104.71C162.237 100.666 162.452 96.5962 164.578 92.501L173.971 97.3775C173.049 99.1543 172.956 100.949 173.693 102.762C174.451 104.586 175.805 106.005 177.755 107.017C179.987 108.176 182.035 108.496 183.899 107.979C185.797 107.451 187.251 106.211 188.264 104.261C190.716 99.5377 189.342 95.826 184.142 93.1262L179.169 90.5445L182.982 83.199ZM216.919 87.6135C218.426 84.71 220.589 82.8484 223.408 82.0286C226.238 81.1872 229.181 81.5595 232.236 83.1457C235.334 84.7543 237.359 86.9472 238.311 89.7243C239.274 92.4797 238.962 95.3851 237.376 98.4402L236.161 100.78C234.642 103.706 232.479 105.567 229.671 106.365C226.864 107.163 223.933 106.769 220.877 105.183C217.801 103.586 215.77 101.404 214.786 98.6371C213.834 95.86 214.146 92.9547 215.721 89.9212L216.919 87.6135ZM221.86 93.3559C221.185 94.656 221.008 95.8982 221.328 97.0823C221.682 98.2561 222.465 99.158 223.678 99.7879C224.892 100.418 226.064 100.518 227.195 100.087C228.327 99.6566 229.241 98.7697 229.938 97.4263L231.187 95.0211C231.862 93.721 232.05 92.4845 231.751 91.3116C231.452 90.1386 230.675 89.2259 229.418 88.5735C228.226 87.9548 227.054 87.8551 225.901 88.2743C224.759 88.6719 223.823 89.5749 223.092 90.9833L221.86 93.3559ZM225.721 125.977C227.239 123.052 229.413 121.196 232.242 120.409C235.083 119.6 238.02 119.983 241.053 121.558C244.13 123.156 246.15 125.332 247.113 128.088C248.108 130.833 247.802 133.754 246.193 136.853L244.978 139.193C243.471 142.097 241.319 143.964 238.521 144.795C235.736 145.604 232.793 145.205 229.695 143.596C226.575 141.976 224.539 139.778 223.587 137C222.636 134.223 222.931 131.35 224.472 128.382L225.721 125.977ZM230.645 131.752C230.026 132.943 229.887 134.164 230.229 135.414C230.57 136.664 231.326 137.593 232.496 138.201C235.139 139.573 237.22 138.797 238.739 135.871L240.021 133.401C240.696 132.101 240.868 130.87 240.536 129.707C240.216 128.523 239.449 127.616 238.235 126.986C237.022 126.356 235.839 126.251 234.686 126.67C233.544 127.068 232.619 127.949 231.91 129.314L230.645 131.752ZM211.07 128.604L207.77 123.755L250.081 98.7645L253.381 103.614L211.07 128.604Z" fill="#FFD200"/>
</g>
<path d="M263.672 158.021L260.153 156.194L262.774 151.147L258.418 148.885L255.797 153.933L252.29 152.112L259.106 138.983L262.613 140.804L259.879 146.07L264.235 148.331L266.969 143.065L270.488 144.892L263.672 158.021ZM273.998 163.382C274 162.983 274.087 162.529 274.257 162.022C272.917 162.528 271.567 162.428 270.208 161.722C268.921 161.055 268.047 160.128 267.584 158.943C267.129 157.762 267.195 156.605 267.783 155.473C268.506 154.081 269.574 153.28 270.987 153.069C272.409 152.863 274.097 153.261 276.051 154.265L277.665 155.103L278.055 154.351C278.37 153.744 278.464 153.177 278.338 152.649C278.22 152.126 277.825 151.689 277.153 151.341C276.563 151.034 276.024 150.934 275.537 151.041C275.059 151.152 274.691 151.454 274.435 151.948L270.928 150.127C271.323 149.367 271.923 148.785 272.728 148.381C273.533 147.978 274.459 147.816 275.506 147.898C276.556 147.971 277.616 148.284 278.683 148.839C280.301 149.679 281.371 150.753 281.894 152.061C282.428 153.366 282.313 154.754 281.549 156.226L278.594 161.917C277.956 163.167 277.64 164.2 277.648 165.015L277.541 165.222L273.998 163.382ZM272.364 159.438C272.882 159.706 273.418 159.841 273.973 159.841C274.531 159.833 275.016 159.69 275.428 159.411L276.6 157.154L275.29 156.474C273.534 155.562 272.285 155.684 271.542 156.838L271.422 157.038C271.196 157.475 271.162 157.915 271.323 158.358C271.483 158.8 271.83 159.16 272.364 159.438ZM286.132 169.682L292.948 156.553L298.433 159.4C300.221 160.328 301.428 161.355 302.055 162.482C302.682 163.608 302.689 164.762 302.076 165.943C301.761 166.55 301.275 166.991 300.619 167.266C299.974 167.538 299.201 167.604 298.298 167.464C299.144 168.129 299.697 168.863 299.958 169.666C300.232 170.465 300.171 171.245 299.776 172.005C299.142 173.226 298.198 173.917 296.944 174.078C295.698 174.242 294.201 173.871 292.454 172.964L286.132 169.682ZM292.467 166.054L291.094 168.699L293.921 170.167C295.159 170.81 296.003 170.698 296.452 169.833C296.91 168.951 296.552 168.195 295.38 167.566L292.467 166.054ZM293.69 163.7L295.862 164.828C297.1 165.45 297.92 165.373 298.323 164.596C298.571 164.119 298.578 163.691 298.343 163.312C298.116 162.938 297.659 162.572 296.971 162.215L294.994 161.188L293.69 163.7ZM306.779 177.12C307.427 177.456 308.045 177.551 308.634 177.405C309.223 177.259 309.679 176.895 310.002 176.313L313.29 178.02C312.82 178.905 312.153 179.596 311.29 180.093C310.43 180.581 309.477 180.815 308.43 180.795C307.394 180.771 306.375 180.499 305.372 179.978C303.496 179.004 302.324 177.641 301.857 175.889C301.395 174.129 301.71 172.197 302.801 170.094L302.921 169.864C303.971 167.841 305.347 166.507 307.049 165.86C308.75 165.213 310.539 165.377 312.416 166.351C314.058 167.204 315.129 168.356 315.629 169.806C316.141 171.253 316.002 172.757 315.212 174.319L311.923 172.612C312.26 171.924 312.335 171.264 312.149 170.634C311.967 169.995 311.545 169.504 310.881 169.159C310.064 168.735 309.29 168.713 308.559 169.093C307.839 169.47 307.133 170.325 306.441 171.66L306.252 172.024C305.55 173.375 305.252 174.453 305.358 175.257C305.464 176.062 305.938 176.683 306.779 177.12ZM318.853 186.977C316.928 185.978 315.665 184.572 315.065 182.761C314.473 180.955 314.687 179.068 315.707 177.103L315.884 176.763C316.568 175.444 317.434 174.4 318.481 173.629C319.533 172.85 320.669 172.423 321.889 172.347C323.121 172.268 324.336 172.54 325.533 173.161C327.329 174.093 328.446 175.393 328.886 177.058C329.333 178.729 329.017 180.603 327.938 182.682L327.195 184.114L318.834 179.773C318.502 180.69 318.485 181.554 318.783 182.365C319.088 183.181 319.678 183.816 320.552 184.27C321.903 184.971 323.212 185.03 324.481 184.446L325.202 187.269C324.29 187.741 323.276 187.954 322.16 187.908C321.047 187.854 319.945 187.544 318.853 186.977ZM324.047 175.994C323.351 175.633 322.663 175.574 321.983 175.816C321.31 176.063 320.687 176.591 320.112 177.402L324.99 179.934L325.135 179.655C325.522 178.87 325.622 178.162 325.436 177.532C325.254 176.893 324.791 176.381 324.047 175.994ZM343.988 199.718L340.469 197.891L345.811 187.601L341.418 185.321L336.076 195.611L332.569 193.79L339.386 180.661L350.804 186.589L343.988 199.718ZM349.594 194.141C350.27 192.838 351.124 191.808 352.155 191.049C353.185 190.29 354.315 189.875 355.543 189.804C356.779 189.737 358.02 190.027 359.266 190.674C361.037 191.594 362.2 192.885 362.754 194.549C363.315 196.216 363.178 198.014 362.341 199.942L361.899 200.852C360.854 202.867 359.452 204.193 357.693 204.83C355.939 205.46 354.115 205.284 352.222 204.301C350.329 203.318 349.131 201.926 348.629 200.125C348.134 198.328 348.429 196.385 349.512 194.298L349.594 194.141ZM352.969 196.216C352.322 197.462 352.061 198.538 352.186 199.445C352.315 200.344 352.816 201.02 353.69 201.474C354.539 201.915 355.37 201.935 356.184 201.536C357.001 201.129 357.782 200.209 358.525 198.777C359.159 197.556 359.412 196.485 359.283 195.566C359.154 194.647 358.657 193.963 357.792 193.513C356.934 193.068 356.097 193.059 355.279 193.487C354.465 193.907 353.695 194.817 352.969 196.216ZM368.379 206.234L366.971 205.504L364.458 210.345L360.951 208.525L367.767 195.395L371.274 197.216L368.71 202.155L369.96 202.803L375.387 199.352L379.816 201.651L372.277 205.67L373.401 214.988L368.729 212.563L368.379 206.234ZM382.202 213.257L388.868 206.35L392.63 208.303L379.477 220.731L378.827 221.271C377.152 222.579 375.412 222.764 373.608 221.828C373.099 221.563 372.621 221.217 372.175 220.791L373.555 218.133L374.082 218.423C374.745 218.767 375.291 218.922 375.72 218.888C376.157 218.858 376.59 218.656 377.019 218.284L377.993 217.418L380.229 201.865L384.003 203.824L382.202 213.257ZM398.615 228.078L395.096 226.251L400.438 215.962L396.046 213.681L390.704 223.971L387.197 222.15L394.013 209.021L405.431 214.949L398.615 228.078ZM408.955 227.3L407.548 226.569L405.034 231.411L401.527 229.59L408.344 216.461L411.85 218.282L409.286 223.22L410.536 223.869L415.964 220.417L420.393 222.717L412.853 226.736L413.977 236.054L409.305 233.628L408.955 227.3ZM430.027 227.718L433.534 229.539L426.718 242.668L423.211 240.847L427.419 232.742L418.818 238.567L415.3 236.74L422.116 223.611L425.635 225.438L421.433 233.531L430.027 227.718Z" fill="#FFD200"/>
<defs>
<filter id="filter0_d" x="0" y="0" width="685" height="350.5" filterUnits="userSpaceOnUse" color-interpolation-filters="sRGB">
<feFlood flood-opacity="0" result="BackgroundImageFix"/>
<feColorMatrix in="SourceAlpha" type="matrix" values="0 0 0 0 0 0 0 0 0 0 0 0 0 0 0 0 0 0 127 0"/>
<feOffset dx="11" dy="5"/>
<feGaussianBlur stdDeviation="3.5"/>
<feColorMatrix type="matrix" values="0 0 0 0 0 0 0 0 0 0 0 0 0 0 0 0 0 0 0.07 0"/>
<feBlend mode="normal" in2="BackgroundImageFix" result="effect1_dropShadow"/>
<feBlend mode="normal" in="SourceGraphic" in2="effect1_dropShadow" result="shape"/>
</filter>
<filter id="filter1_d" x="160.805" y="63.3706" width="94.5773" height="85.8307" filterUnits="userSpaceOnUse" color-interpolation-filters="sRGB">
<feFlood flood-opacity="0" result="BackgroundImageFix"/>
<feColorMatrix in="SourceAlpha" type="matrix" values="0 0 0 0 0 0 0 0 0 0 0 0 0 0 0 0 0 0 127 0"/>
<feOffset dy="2"/>
<feGaussianBlur stdDeviation="1"/>
<feColorMatrix type="matrix" values="0 0 0 0 0 0 0 0 0 0 0 0 0 0 0 0 0 0 0.13 0"/>
<feBlend mode="normal" in2="BackgroundImageFix" result="effect1_dropShadow"/>
<feBlend mode="normal" in="SourceGraphic" in2="effect1_dropShadow" result="shape"/>
</filter>
<linearGradient id="paint0_linear" x1="357.5" y1="75" x2="294.5" y2="221.5" gradientUnits="userSpaceOnUse">
<stop offset="0.127451" stop-color="#FE3535"/>
<stop offset="0.435892" stop-color="#F47272"/>
<stop offset="1" stop-color="#C03232"/>
</linearGradient>
</defs>
</svg>
